<mxfile host="Electron" modified="2024-02-10T11:23:05.434Z" agent="Mozilla/5.0 (X11; Linux x86_64) AppleWebKit/537.36 (KHTML, like Gecko) draw.io/23.0.2 Chrome/120.0.6099.268 Electron/28.2.1 Safari/537.36" etag="dhgFERanC8iUiDN0HABF" version="23.0.2" type="device">
  <diagram name="Page-1" id="tQ2Bi4pnbvqzPUo_J81-">
    <mxGraphModel dx="3134" dy="835" grid="1" gridSize="10" guides="1" tooltips="1" connect="1" arrows="1" fold="1" page="1" pageScale="1" pageWidth="850" pageHeight="1100" math="0" shadow="0">
      <root>
        <mxCell id="0" />
        <mxCell id="1" parent="0" />
        <mxCell id="9tJZd1ZRZJAz-mKnk4CD-110" value="" style="rounded=1;whiteSpace=wrap;html=1;fillColor=none;dashed=1;dashPattern=8 8;" parent="1" vertex="1">
          <mxGeometry x="-60" y="150" width="1110" height="940" as="geometry" />
        </mxCell>
        <mxCell id="9tJZd1ZRZJAz-mKnk4CD-109" value="" style="rounded=1;whiteSpace=wrap;html=1;fillColor=none;dashed=1;dashPattern=8 8;" parent="1" vertex="1">
          <mxGeometry x="-1200" y="150" width="1110" height="940" as="geometry" />
        </mxCell>
        <mxCell id="9tJZd1ZRZJAz-mKnk4CD-2" value="P1" style="rounded=1;whiteSpace=wrap;html=1;fillColor=#dae8fc;strokeColor=#6c8ebf;" parent="1" vertex="1">
          <mxGeometry x="-10" y="250" width="80" height="60" as="geometry" />
        </mxCell>
        <mxCell id="9tJZd1ZRZJAz-mKnk4CD-3" value="P3" style="rounded=1;whiteSpace=wrap;html=1;fillColor=#dae8fc;strokeColor=#6c8ebf;" parent="1" vertex="1">
          <mxGeometry x="-10" y="330" width="80" height="60" as="geometry" />
        </mxCell>
        <mxCell id="9tJZd1ZRZJAz-mKnk4CD-4" value="P4" style="rounded=1;whiteSpace=wrap;html=1;fillColor=#dae8fc;strokeColor=#6c8ebf;" parent="1" vertex="1">
          <mxGeometry x="110" y="330" width="80" height="60" as="geometry" />
        </mxCell>
        <mxCell id="9tJZd1ZRZJAz-mKnk4CD-5" value="P2" style="rounded=1;whiteSpace=wrap;html=1;fillColor=#dae8fc;strokeColor=#6c8ebf;" parent="1" vertex="1">
          <mxGeometry x="110" y="250" width="80" height="60" as="geometry" />
        </mxCell>
        <mxCell id="9tJZd1ZRZJAz-mKnk4CD-6" value="Channel 1" style="ellipse;whiteSpace=wrap;html=1;fillColor=#008a00;fontColor=#ffffff;strokeColor=#005700;" parent="1" vertex="1">
          <mxGeometry x="170" y="480" width="520" height="50" as="geometry" />
        </mxCell>
        <mxCell id="9tJZd1ZRZJAz-mKnk4CD-7" value="Channel 2" style="ellipse;whiteSpace=wrap;html=1;fillColor=#0050ef;fontColor=#ffffff;strokeColor=#001DBC;" parent="1" vertex="1">
          <mxGeometry x="170" y="560" width="520" height="50" as="geometry" />
        </mxCell>
        <mxCell id="9tJZd1ZRZJAz-mKnk4CD-8" value="CA3" style="shape=card;whiteSpace=wrap;html=1;fillColor=#f8cecc;strokeColor=#b85450;" parent="1" vertex="1">
          <mxGeometry x="10" y="980" width="70" height="80" as="geometry" />
        </mxCell>
        <mxCell id="9tJZd1ZRZJAz-mKnk4CD-9" value="CA2" style="shape=card;whiteSpace=wrap;html=1;fillColor=#d5e8d4;strokeColor=#82b366;" parent="1" vertex="1">
          <mxGeometry x="100" y="890" width="70" height="80" as="geometry" />
        </mxCell>
        <mxCell id="9tJZd1ZRZJAz-mKnk4CD-10" value="CA1" style="shape=card;whiteSpace=wrap;html=1;fillColor=#dae8fc;strokeColor=#6c8ebf;" parent="1" vertex="1">
          <mxGeometry x="10" y="890" width="70" height="80" as="geometry" />
        </mxCell>
        <mxCell id="9tJZd1ZRZJAz-mKnk4CD-11" value="CA4" style="shape=card;whiteSpace=wrap;html=1;fillColor=#e1d5e7;strokeColor=#9673a6;" parent="1" vertex="1">
          <mxGeometry x="100" y="980" width="70" height="80" as="geometry" />
        </mxCell>
        <mxCell id="9tJZd1ZRZJAz-mKnk4CD-12" value="P1" style="rounded=1;whiteSpace=wrap;html=1;fillColor=#d5e8d4;strokeColor=#82b366;" parent="1" vertex="1">
          <mxGeometry x="590" y="250" width="80" height="60" as="geometry" />
        </mxCell>
        <mxCell id="9tJZd1ZRZJAz-mKnk4CD-13" value="P3" style="rounded=1;whiteSpace=wrap;html=1;fillColor=#d5e8d4;strokeColor=#82b366;" parent="1" vertex="1">
          <mxGeometry x="590" y="330" width="80" height="60" as="geometry" />
        </mxCell>
        <mxCell id="9tJZd1ZRZJAz-mKnk4CD-14" value="P4" style="rounded=1;whiteSpace=wrap;html=1;fillColor=#d5e8d4;strokeColor=#82b366;" parent="1" vertex="1">
          <mxGeometry x="710" y="330" width="80" height="60" as="geometry" />
        </mxCell>
        <mxCell id="9tJZd1ZRZJAz-mKnk4CD-15" value="P2" style="rounded=1;whiteSpace=wrap;html=1;fillColor=#d5e8d4;strokeColor=#82b366;" parent="1" vertex="1">
          <mxGeometry x="710" y="250" width="80" height="60" as="geometry" />
        </mxCell>
        <mxCell id="9tJZd1ZRZJAz-mKnk4CD-16" value="P1" style="rounded=1;whiteSpace=wrap;html=1;fillColor=#f8cecc;strokeColor=#b85450;" parent="1" vertex="1">
          <mxGeometry x="10" y="670" width="80" height="60" as="geometry" />
        </mxCell>
        <mxCell id="9tJZd1ZRZJAz-mKnk4CD-17" value="P3" style="rounded=1;whiteSpace=wrap;html=1;fillColor=#f8cecc;strokeColor=#b85450;" parent="1" vertex="1">
          <mxGeometry x="10" y="750" width="80" height="60" as="geometry" />
        </mxCell>
        <mxCell id="9tJZd1ZRZJAz-mKnk4CD-18" value="P4" style="rounded=1;whiteSpace=wrap;html=1;fillColor=#f8cecc;strokeColor=#b85450;" parent="1" vertex="1">
          <mxGeometry x="130" y="750" width="80" height="60" as="geometry" />
        </mxCell>
        <mxCell id="9tJZd1ZRZJAz-mKnk4CD-19" value="P2" style="rounded=1;whiteSpace=wrap;html=1;fillColor=#f8cecc;strokeColor=#b85450;" parent="1" vertex="1">
          <mxGeometry x="130" y="670" width="80" height="60" as="geometry" />
        </mxCell>
        <mxCell id="9tJZd1ZRZJAz-mKnk4CD-20" value="P1" style="rounded=1;whiteSpace=wrap;html=1;fillColor=#e1d5e7;strokeColor=#9673a6;" parent="1" vertex="1">
          <mxGeometry x="590" y="680" width="80" height="60" as="geometry" />
        </mxCell>
        <mxCell id="9tJZd1ZRZJAz-mKnk4CD-21" value="P3" style="rounded=1;whiteSpace=wrap;html=1;fillColor=#e1d5e7;strokeColor=#9673a6;" parent="1" vertex="1">
          <mxGeometry x="590" y="760" width="80" height="60" as="geometry" />
        </mxCell>
        <mxCell id="9tJZd1ZRZJAz-mKnk4CD-22" value="P4" style="rounded=1;whiteSpace=wrap;html=1;fillColor=#e1d5e7;strokeColor=#9673a6;" parent="1" vertex="1">
          <mxGeometry x="710" y="760" width="80" height="60" as="geometry" />
        </mxCell>
        <mxCell id="9tJZd1ZRZJAz-mKnk4CD-23" value="P2" style="rounded=1;whiteSpace=wrap;html=1;fillColor=#e1d5e7;strokeColor=#9673a6;" parent="1" vertex="1">
          <mxGeometry x="710" y="680" width="80" height="60" as="geometry" />
        </mxCell>
        <mxCell id="9tJZd1ZRZJAz-mKnk4CD-24" value="ORDERER 1" style="shape=parallelogram;perimeter=parallelogramPerimeter;whiteSpace=wrap;html=1;fixedSize=1;" parent="1" vertex="1">
          <mxGeometry x="770" y="500" width="120" height="60" as="geometry" />
        </mxCell>
        <mxCell id="9tJZd1ZRZJAz-mKnk4CD-30" value="" style="ellipse;whiteSpace=wrap;html=1;fillColor=#0050ef;fontColor=#ffffff;strokeColor=#001DBC;" parent="1" vertex="1">
          <mxGeometry x="170" y="370" width="20" height="20" as="geometry" />
        </mxCell>
        <mxCell id="9tJZd1ZRZJAz-mKnk4CD-31" value="" style="ellipse;whiteSpace=wrap;html=1;fillColor=#0050ef;fontColor=#ffffff;strokeColor=#001DBC;" parent="1" vertex="1">
          <mxGeometry x="50" y="370" width="20" height="20" as="geometry" />
        </mxCell>
        <mxCell id="9tJZd1ZRZJAz-mKnk4CD-32" value="" style="ellipse;whiteSpace=wrap;html=1;fillColor=#0050ef;fontColor=#ffffff;strokeColor=#001DBC;" parent="1" vertex="1">
          <mxGeometry x="170" y="290" width="20" height="20" as="geometry" />
        </mxCell>
        <mxCell id="9tJZd1ZRZJAz-mKnk4CD-33" value="" style="ellipse;whiteSpace=wrap;html=1;fillColor=#0050ef;fontColor=#ffffff;strokeColor=#001DBC;" parent="1" vertex="1">
          <mxGeometry x="50" y="290" width="20" height="20" as="geometry" />
        </mxCell>
        <mxCell id="9tJZd1ZRZJAz-mKnk4CD-34" value="" style="ellipse;whiteSpace=wrap;html=1;fillColor=#0050ef;fontColor=#ffffff;strokeColor=#001DBC;" parent="1" vertex="1">
          <mxGeometry x="190" y="790" width="20" height="20" as="geometry" />
        </mxCell>
        <mxCell id="9tJZd1ZRZJAz-mKnk4CD-35" value="" style="ellipse;whiteSpace=wrap;html=1;fillColor=#0050ef;fontColor=#ffffff;strokeColor=#001DBC;" parent="1" vertex="1">
          <mxGeometry x="70" y="790" width="20" height="20" as="geometry" />
        </mxCell>
        <mxCell id="9tJZd1ZRZJAz-mKnk4CD-36" value="" style="ellipse;whiteSpace=wrap;html=1;fillColor=#0050ef;fontColor=#ffffff;strokeColor=#001DBC;" parent="1" vertex="1">
          <mxGeometry x="190" y="710" width="20" height="20" as="geometry" />
        </mxCell>
        <mxCell id="9tJZd1ZRZJAz-mKnk4CD-37" value="" style="ellipse;whiteSpace=wrap;html=1;fillColor=#0050ef;fontColor=#ffffff;strokeColor=#001DBC;" parent="1" vertex="1">
          <mxGeometry x="70" y="710" width="20" height="20" as="geometry" />
        </mxCell>
        <mxCell id="9tJZd1ZRZJAz-mKnk4CD-40" value="" style="ellipse;whiteSpace=wrap;html=1;fillColor=#0050ef;fontColor=#ffffff;strokeColor=#001DBC;" parent="1" vertex="1">
          <mxGeometry x="650" y="720" width="20" height="20" as="geometry" />
        </mxCell>
        <mxCell id="9tJZd1ZRZJAz-mKnk4CD-41" value="" style="ellipse;whiteSpace=wrap;html=1;fillColor=#0050ef;fontColor=#ffffff;strokeColor=#001DBC;" parent="1" vertex="1">
          <mxGeometry x="770" y="720" width="20" height="20" as="geometry" />
        </mxCell>
        <mxCell id="9tJZd1ZRZJAz-mKnk4CD-42" value="" style="ellipse;whiteSpace=wrap;html=1;fillColor=#0050ef;fontColor=#ffffff;strokeColor=#001DBC;" parent="1" vertex="1">
          <mxGeometry x="650" y="800" width="20" height="20" as="geometry" />
        </mxCell>
        <mxCell id="9tJZd1ZRZJAz-mKnk4CD-43" value="" style="ellipse;whiteSpace=wrap;html=1;fillColor=#0050ef;fontColor=#ffffff;strokeColor=#001DBC;" parent="1" vertex="1">
          <mxGeometry x="770" y="800" width="20" height="20" as="geometry" />
        </mxCell>
        <mxCell id="9tJZd1ZRZJAz-mKnk4CD-45" value="" style="ellipse;whiteSpace=wrap;html=1;fillColor=#0050ef;fontColor=#ffffff;strokeColor=#001DBC;" parent="1" vertex="1">
          <mxGeometry x="770" y="290" width="20" height="20" as="geometry" />
        </mxCell>
        <mxCell id="9tJZd1ZRZJAz-mKnk4CD-46" value="" style="ellipse;whiteSpace=wrap;html=1;fillColor=#0050ef;fontColor=#ffffff;strokeColor=#001DBC;" parent="1" vertex="1">
          <mxGeometry x="650" y="290" width="20" height="20" as="geometry" />
        </mxCell>
        <mxCell id="9tJZd1ZRZJAz-mKnk4CD-47" value="" style="ellipse;whiteSpace=wrap;html=1;fillColor=#0050ef;fontColor=#ffffff;strokeColor=#001DBC;" parent="1" vertex="1">
          <mxGeometry x="650" y="370" width="20" height="20" as="geometry" />
        </mxCell>
        <mxCell id="9tJZd1ZRZJAz-mKnk4CD-48" value="" style="ellipse;whiteSpace=wrap;html=1;fillColor=#0050ef;fontColor=#ffffff;strokeColor=#001DBC;" parent="1" vertex="1">
          <mxGeometry x="770" y="370" width="20" height="20" as="geometry" />
        </mxCell>
        <mxCell id="9tJZd1ZRZJAz-mKnk4CD-50" value="" style="ellipse;whiteSpace=wrap;html=1;fillColor=#008a00;fontColor=#ffffff;strokeColor=#005700;" parent="1" vertex="1">
          <mxGeometry x="30" y="290" width="20" height="20" as="geometry" />
        </mxCell>
        <mxCell id="9tJZd1ZRZJAz-mKnk4CD-51" value="" style="ellipse;whiteSpace=wrap;html=1;fillColor=#008a00;fontColor=#ffffff;strokeColor=#005700;" parent="1" vertex="1">
          <mxGeometry x="30" y="370" width="20" height="20" as="geometry" />
        </mxCell>
        <mxCell id="9tJZd1ZRZJAz-mKnk4CD-52" value="" style="ellipse;whiteSpace=wrap;html=1;fillColor=#008a00;fontColor=#ffffff;strokeColor=#005700;" parent="1" vertex="1">
          <mxGeometry x="150" y="370" width="20" height="20" as="geometry" />
        </mxCell>
        <mxCell id="9tJZd1ZRZJAz-mKnk4CD-53" value="" style="ellipse;whiteSpace=wrap;html=1;fillColor=#008a00;fontColor=#ffffff;strokeColor=#005700;" parent="1" vertex="1">
          <mxGeometry x="150" y="290" width="20" height="20" as="geometry" />
        </mxCell>
        <mxCell id="9tJZd1ZRZJAz-mKnk4CD-56" value="" style="ellipse;whiteSpace=wrap;html=1;fillColor=#008a00;fontColor=#ffffff;strokeColor=#005700;" parent="1" vertex="1">
          <mxGeometry x="750" y="370" width="20" height="20" as="geometry" />
        </mxCell>
        <mxCell id="9tJZd1ZRZJAz-mKnk4CD-57" value="" style="ellipse;whiteSpace=wrap;html=1;fillColor=#008a00;fontColor=#ffffff;strokeColor=#005700;" parent="1" vertex="1">
          <mxGeometry x="630" y="370" width="20" height="20" as="geometry" />
        </mxCell>
        <mxCell id="9tJZd1ZRZJAz-mKnk4CD-58" value="" style="ellipse;whiteSpace=wrap;html=1;fillColor=#008a00;fontColor=#ffffff;strokeColor=#005700;" parent="1" vertex="1">
          <mxGeometry x="750" y="290" width="20" height="20" as="geometry" />
        </mxCell>
        <mxCell id="9tJZd1ZRZJAz-mKnk4CD-59" value="" style="ellipse;whiteSpace=wrap;html=1;fillColor=#008a00;fontColor=#ffffff;strokeColor=#005700;" parent="1" vertex="1">
          <mxGeometry x="630" y="290" width="20" height="20" as="geometry" />
        </mxCell>
        <mxCell id="9tJZd1ZRZJAz-mKnk4CD-62" value="" style="ellipse;whiteSpace=wrap;html=1;fillColor=#008a00;fontColor=#ffffff;strokeColor=#005700;" parent="1" vertex="1">
          <mxGeometry x="50" y="790" width="20" height="20" as="geometry" />
        </mxCell>
        <mxCell id="9tJZd1ZRZJAz-mKnk4CD-63" value="" style="ellipse;whiteSpace=wrap;html=1;fillColor=#008a00;fontColor=#ffffff;strokeColor=#005700;" parent="1" vertex="1">
          <mxGeometry x="50" y="710" width="20" height="20" as="geometry" />
        </mxCell>
        <mxCell id="9tJZd1ZRZJAz-mKnk4CD-64" value="" style="ellipse;whiteSpace=wrap;html=1;fillColor=#008a00;fontColor=#ffffff;strokeColor=#005700;" parent="1" vertex="1">
          <mxGeometry x="170" y="710" width="20" height="20" as="geometry" />
        </mxCell>
        <mxCell id="9tJZd1ZRZJAz-mKnk4CD-65" value="" style="ellipse;whiteSpace=wrap;html=1;fillColor=#008a00;fontColor=#ffffff;strokeColor=#005700;" parent="1" vertex="1">
          <mxGeometry x="170" y="790" width="20" height="20" as="geometry" />
        </mxCell>
        <mxCell id="9tJZd1ZRZJAz-mKnk4CD-66" value="" style="ellipse;whiteSpace=wrap;html=1;fillColor=#008a00;fontColor=#ffffff;strokeColor=#005700;" parent="1" vertex="1">
          <mxGeometry x="750" y="720" width="20" height="20" as="geometry" />
        </mxCell>
        <mxCell id="9tJZd1ZRZJAz-mKnk4CD-67" value="" style="ellipse;whiteSpace=wrap;html=1;fillColor=#008a00;fontColor=#ffffff;strokeColor=#005700;" parent="1" vertex="1">
          <mxGeometry x="630" y="720" width="20" height="20" as="geometry" />
        </mxCell>
        <mxCell id="9tJZd1ZRZJAz-mKnk4CD-68" value="" style="ellipse;whiteSpace=wrap;html=1;fillColor=#008a00;fontColor=#ffffff;strokeColor=#005700;" parent="1" vertex="1">
          <mxGeometry x="750" y="800" width="20" height="20" as="geometry" />
        </mxCell>
        <mxCell id="9tJZd1ZRZJAz-mKnk4CD-69" value="" style="ellipse;whiteSpace=wrap;html=1;fillColor=#008a00;fontColor=#ffffff;strokeColor=#005700;" parent="1" vertex="1">
          <mxGeometry x="630" y="800" width="20" height="20" as="geometry" />
        </mxCell>
        <mxCell id="9tJZd1ZRZJAz-mKnk4CD-72" value="" style="ellipse;whiteSpace=wrap;html=1;fillColor=#008a00;fontColor=#ffffff;strokeColor=#005700;" parent="1" vertex="1">
          <mxGeometry x="780" y="540" width="20" height="20" as="geometry" />
        </mxCell>
        <mxCell id="9tJZd1ZRZJAz-mKnk4CD-90" style="edgeStyle=orthogonalEdgeStyle;rounded=0;orthogonalLoop=1;jettySize=auto;html=1;exitX=1;exitY=0.5;exitDx=0;exitDy=0;entryX=0.496;entryY=0.102;entryDx=0;entryDy=0;entryPerimeter=0;" parent="1" source="9tJZd1ZRZJAz-mKnk4CD-78" target="9tJZd1ZRZJAz-mKnk4CD-89" edge="1">
          <mxGeometry relative="1" as="geometry" />
        </mxCell>
        <mxCell id="9tJZd1ZRZJAz-mKnk4CD-78" value="CLIENT APP (SDK)" style="rounded=0;whiteSpace=wrap;html=1;fontSize=24;" parent="1" vertex="1">
          <mxGeometry x="-924" y="440" width="320" height="130" as="geometry" />
        </mxCell>
        <mxCell id="9tJZd1ZRZJAz-mKnk4CD-80" value="Client (Web app, Insomnia, curl...)" style="rounded=0;whiteSpace=wrap;html=1;fontSize=24;" parent="1" vertex="1">
          <mxGeometry x="-1630" y="435" width="320" height="130" as="geometry" />
        </mxCell>
        <mxCell id="9tJZd1ZRZJAz-mKnk4CD-89" value="Choose CA depending&lt;br&gt;&amp;nbsp;on source account" style="ellipse;shape=cloud;whiteSpace=wrap;html=1;" parent="1" vertex="1">
          <mxGeometry x="-400" y="860" width="215" height="200" as="geometry" />
        </mxCell>
        <mxCell id="9tJZd1ZRZJAz-mKnk4CD-91" style="rounded=0;orthogonalLoop=1;jettySize=auto;html=1;exitX=0.875;exitY=0.5;exitDx=0;exitDy=0;exitPerimeter=0;entryX=0.002;entryY=0.87;entryDx=0;entryDy=0;entryPerimeter=0;" parent="1" source="9tJZd1ZRZJAz-mKnk4CD-89" target="9tJZd1ZRZJAz-mKnk4CD-110" edge="1">
          <mxGeometry relative="1" as="geometry">
            <mxPoint x="-120" y="960" as="targetPoint" />
          </mxGeometry>
        </mxCell>
        <mxCell id="9tJZd1ZRZJAz-mKnk4CD-92" value="" style="endArrow=classic;startArrow=classic;html=1;rounded=0;entryX=1.002;entryY=0.566;entryDx=0;entryDy=0;entryPerimeter=0;exitX=0;exitY=0.5;exitDx=0;exitDy=0;" parent="1" source="9tJZd1ZRZJAz-mKnk4CD-78" target="9tJZd1ZRZJAz-mKnk4CD-80" edge="1">
          <mxGeometry width="50" height="50" relative="1" as="geometry">
            <mxPoint x="-1090" y="519.41" as="sourcePoint" />
            <mxPoint x="-1270" y="519.41" as="targetPoint" />
          </mxGeometry>
        </mxCell>
        <mxCell id="9tJZd1ZRZJAz-mKnk4CD-93" value="&lt;font style=&quot;font-size: 28px;&quot;&gt;JWT&lt;/font&gt;" style="edgeLabel;html=1;align=center;verticalAlign=middle;resizable=0;points=[];" parent="9tJZd1ZRZJAz-mKnk4CD-92" vertex="1" connectable="0">
          <mxGeometry x="0.0047" y="-1" relative="1" as="geometry">
            <mxPoint x="1" as="offset" />
          </mxGeometry>
        </mxCell>
        <mxCell id="9tJZd1ZRZJAz-mKnk4CD-95" style="edgeStyle=orthogonalEdgeStyle;rounded=0;orthogonalLoop=1;jettySize=auto;html=1;exitX=0.5;exitY=1;exitDx=0;exitDy=0;exitPerimeter=0;entryX=0.5;entryY=0;entryDx=0;entryDy=0;endArrow=none;endFill=0;" parent="1" source="9tJZd1ZRZJAz-mKnk4CD-94" target="9tJZd1ZRZJAz-mKnk4CD-78" edge="1">
          <mxGeometry relative="1" as="geometry" />
        </mxCell>
        <mxCell id="9tJZd1ZRZJAz-mKnk4CD-94" value="User DB" style="shape=cylinder3;whiteSpace=wrap;html=1;boundedLbl=1;backgroundOutline=1;size=15;fontSize=26;" parent="1" vertex="1">
          <mxGeometry x="-844" y="220" width="160" height="100" as="geometry" />
        </mxCell>
        <mxCell id="9tJZd1ZRZJAz-mKnk4CD-96" value="" style="ellipse;whiteSpace=wrap;html=1;fillColor=#0050ef;fontColor=#ffffff;strokeColor=#001DBC;" parent="1" vertex="1">
          <mxGeometry x="800" y="540" width="20" height="20" as="geometry" />
        </mxCell>
        <mxCell id="9tJZd1ZRZJAz-mKnk4CD-103" value="Wallets" style="whiteSpace=wrap;html=1;shape=mxgraph.basic.document" parent="1" vertex="1">
          <mxGeometry x="-550" y="220" width="100" height="100" as="geometry" />
        </mxCell>
        <mxCell id="9tJZd1ZRZJAz-mKnk4CD-104" value="1" style="text;html=1;align=center;verticalAlign=middle;resizable=0;points=[];autosize=1;strokeColor=none;fillColor=none;" parent="1" vertex="1">
          <mxGeometry x="-1025" y="478" width="30" height="30" as="geometry" />
        </mxCell>
        <mxCell id="9tJZd1ZRZJAz-mKnk4CD-105" value="2" style="text;html=1;align=center;verticalAlign=middle;resizable=0;points=[];autosize=1;strokeColor=none;fillColor=none;" parent="1" vertex="1">
          <mxGeometry x="-770" y="360" width="30" height="30" as="geometry" />
        </mxCell>
        <mxCell id="9tJZd1ZRZJAz-mKnk4CD-106" style="edgeStyle=orthogonalEdgeStyle;rounded=0;orthogonalLoop=1;jettySize=auto;html=1;exitX=1;exitY=0;exitDx=0;exitDy=0;entryX=0.5;entryY=1;entryDx=0;entryDy=0;entryPerimeter=0;" parent="1" source="9tJZd1ZRZJAz-mKnk4CD-78" target="9tJZd1ZRZJAz-mKnk4CD-103" edge="1">
          <mxGeometry relative="1" as="geometry">
            <Array as="points">
              <mxPoint x="-604" y="460" />
              <mxPoint x="-500" y="460" />
            </Array>
          </mxGeometry>
        </mxCell>
        <mxCell id="9tJZd1ZRZJAz-mKnk4CD-107" value="3" style="text;html=1;align=center;verticalAlign=middle;resizable=0;points=[];autosize=1;strokeColor=none;fillColor=none;" parent="1" vertex="1">
          <mxGeometry x="-520" y="360" width="30" height="30" as="geometry" />
        </mxCell>
        <mxCell id="9tJZd1ZRZJAz-mKnk4CD-108" value="4" style="text;html=1;align=center;verticalAlign=middle;resizable=0;points=[];autosize=1;strokeColor=none;fillColor=none;" parent="1" vertex="1">
          <mxGeometry x="-585" y="508" width="30" height="30" as="geometry" />
        </mxCell>
      </root>
    </mxGraphModel>
  </diagram>
</mxfile>
